PathFileType	3	(X/Y/Z)	D:\Vicon Database\Healthy Subjects\S0040\Jan. 30, 2020\Static Calibration.trc
DataRate	CameraRate	NumFrames	NumMarkers	Units	OrigDataRate	OrigDataStartFrame	OrigNumFrames
100.0	100.0	5	69	mm	100.0	113	300	
Frame#	Time	sternum_cluster1			sternum_cluster2			sternum_cluster3			left_asis			right_asis			left_psis			right_psis			sacrum_cluster1			sacrum_cluster2			sacrum_cluster3			left_lat_femoral_epicondyle			left_med_femoral_epicondyle			left_anterior_thigh15			left_anterior_thigh25			left_anterior_thigh50			left_lateral_thigh25			left_lateral_thigh50			left_trochanter			left_thigh_cluster1			left_thigh_cluster2			left_thigh_cluster3			left_lateral_tibial_condyle			left_medial_tibial_condyle			left_fibular_head			left_tibial_tuberosity			left_anterior_shank30			left_lateral_malleolus			left_medial_malleolus			left_shank_cluster1			left_shank_cluster2			left_shank_cluster3			left_heel			left_metatarsal2			left_metatarsal5			left_metatarsal1			left_toe_tip			left_foot_cluster1			left_foot_cluster2			left_foot_cluster3			right_lat_femoral_epicondyle			right_med_femoral_epicondyle			right_anterior_thigh15			right_anterior_thigh25			right_anterior_thigh50			right_lateral_thigh25			right_lateral_thigh50			right_trochanter			right_thigh_cluster1			right_thigh_cluster2			right_thigh_cluster3			right_lateral_tibial_condyle			right_medial_tibial_condyle			right_fibular_head			right_tibial_tuberosity			right_lateral_distal_shank			right_anterior_shank30			right_lateral_malleolus			right_medial_malleolus			right_shank_cluster1			right_shank_cluster2			right_shank_cluster3			right_heel			right_metatarsal2			right_metatarsal5			right_metatarsal1			right_toe_tip			right_foot_cluster1			right_foot_cluster2			right_foot_cluster3			
		X1	Y1	Z1	X2	Y2	Z2	X3	Y3	Z3	X4	Y4	Z4	X5	Y5	Z5	X6	Y6	Z6	X7	Y7	Z7	X8	Y8	Z8	X9	Y9	Z9	X10	Y10	Z10	X11	Y11	Z11	X12	Y12	Z12	X13	Y13	Z13	X14	Y14	Z14	X15	Y15	Z15	X16	Y16	Z16	X17	Y17	Z17	X18	Y18	Z18	X19	Y19	Z19	X20	Y20	Z20	X21	Y21	Z21	X22	Y22	Z22	X23	Y23	Z23	X24	Y24	Z24	X25	Y25	Z25	X26	Y26	Z26	X27	Y27	Z27	X28	Y28	Z28	X29	Y29	Z29	X30	Y30	Z30	X31	Y31	Z31	X32	Y32	Z32	X33	Y33	Z33	X34	Y34	Z34	X35	Y35	Z35	X36	Y36	Z36	X37	Y37	Z37	X38	Y38	Z38	X39	Y39	Z39	X40	Y40	Z40	X41	Y41	Z41	X42	Y42	Z42	X43	Y43	Z43	X44	Y44	Z44	X45	Y45	Z45	X46	Y46	Z46	X47	Y47	Z47	X48	Y48	Z48	X49	Y49	Z49	X50	Y50	Z50	X51	Y51	Z51	X52	Y52	Z52	X53	Y53	Z53	X54	Y54	Z54	X55	Y55	Z55	X56	Y56	Z56	X57	Y57	Z57	X58	Y58	Z58	X59	Y59	Z59	X60	Y60	Z60	X61	Y61	Z61	X62	Y62	Z62	X63	Y63	Z63	X64	Y64	Z64	X65	Y65	Z65	X66	Y66	Z66	X67	Y67	Z67	X68	Y68	Z68	X69	Y69	Z69	
113	1.12	778.41327	1473.5396	-226.59521	765.08289	1446.192	-219.06248	767.98395	1449.6007	-256.89493	753.30048	1077.7509	-118.98211	760.98492	1085.9413	-367.13531	920.19556	1090.9169	-163.78262	927.45581	1096.9631	-280.9968	936.96161	1144.442	-225.75476	942.27875	1119.1598	-238.36215	942.98859	1112.09	-199.25447	873.56372	552.98932	-78.193184	861.38165	541.82605	-212.92078	766.87274	613.83636	-136.01717	734.4837	699.07336	-126.52489	719.8598	839.80994	-112.0519	846.3678	706.44373	-60.82991	817.2005	849.75232	-40.342728	816.94153	971.55414	-53.713272	822.2337	807.84082	-35.884296	828.87903	778.9552	-36.573029	791.28137	783.95892	-36.205921	879.61652	500.20325	-75.331093	873.71222	486.48834	-198.18724	880.31989	472.06726	-70.426056	822.99707	461.60913	-123.38265	821.07758	216.3432	-122.44965	858.87738	98.451775	-94.475868	841.59137	108.53403	-172.23415	816.87469	412.9119	-147.41586	810.24805	386.31488	-137.60422	822.5697	383.74786	-174.32906	926.76526	61.490837	-133.63921	708.81567	68.225433	-116.32342	735.25635	56.834511	-77.541634	713.55481	60.056187	-159.80565	657.29248	59.566799	-110.94427	771.99243	116.79784	-115.28634	747.75104	102.44259	-103.47962	741.74994	107.31506	-141.25186	851.75848	538.80188	-383.93439	845.77515	539.41925	-249.64819	760.29456	615.03772	-326.02512	731.49408	696.89539	-323.1489	717.72412	829.90137	-335.2829	830.80811	698.52191	-407.78384	816.19415	844.13635	-433.38486	819.0827	973.94434	-423.80801	828.64355	793.62158	-438.5061	819.10553	766.56531	-434.71216	858.1474	767.73865	-431.36005	863.13739	499.68747	-383.16409	849.20483	484.53891	-264.19604	870.86444	473.19995	-387.52173	814.38513	460.31921	-344.12531	874.95001	203.35219	-385.30362	827.75952	217.22783	-341.12677	869.54474	98.489609	-374.19391	855.48584	107.21661	-294.27127	822.12415	397.88593	-290.63181	826.19348	369.39557	-284.65826	803.42584	369.67651	-314.30588	940.45605	62.192837	-340.36356	721.58105	68.682617	-341.93536	755.97198	55.565178	-392.04974	731.36444	51.356121	-300.5896	670.80438	56.080254	-351.64749	779.18732	115.57695	-337.20618	754.6889	101.74734	-329.50055	755.57123	106.82555	-366.66043
114	1.13	778.46045	1473.5552	-226.62518	765.14093	1446.2196	-219.10924	768.01563	1449.6244	-256.93213	753.32025	1077.7485	-119.02708	761.00214	1085.958	-367.19513	920.22681	1090.9366	-163.79265	927.52295	1096.959	-280.96878	936.98859	1144.454	-225.6377	942.32703	1119.1174	-238.36394	943.0257	1112.1145	-199.26743	873.52832	553.02014	-78.183792	861.32098	541.87482	-212.95523	766.87097	613.85199	-136.04585	734.49554	699.07507	-126.55607	719.86133	839.81726	-112.09169	846.37109	706.46906	-60.856045	817.21259	849.75885	-40.389832	816.98529	971.55902	-53.760796	822.25275	807.84711	-35.900661	828.89886	778.97009	-36.593948	791.29852	783.94391	-36.210396	879.62567	500.19293	-75.356247	873.67957	486.51398	-198.22733	880.32275	472.07999	-70.451981	822.98993	461.62076	-123.42899	821.04114	216.38063	-122.4603	858.84454	98.486443	-94.462814	841.59973	108.53255	-172.25035	816.88184	412.91998	-147.46275	810.22235	386.32187	-137.6093	822.31506	383.95062	-174.29074	926.71643	61.570515	-133.60222	708.77789	68.236305	-116.31951	735.24438	56.858208	-77.533478	713.52429	60.083775	-159.81642	657.2713	59.569813	-110.93863	771.97125	116.80555	-115.30346	747.72144	102.45729	-103.47037	741.68451	107.35502	-141.26762	852.73456	539.04523	-383.3786	845.78357	539.41821	-249.67909	760.29578	615.03748	-326.05905	731.48474	696.89935	-323.16998	718.05066	829.84076	-335.31531	830.72003	698.57861	-407.83301	815.75574	844.33685	-434.05008	819.15375	973.94995	-423.83719	828.63428	793.66541	-438.53757	818.98505	766.61334	-434.75204	858.13434	767.77588	-431.5043	863.0816	499.75558	-383.21036	849.19354	484.54602	-264.20673	870.83588	473.22684	-387.53702	814.36328	460.32626	-344.1293	874.92029	203.40234	-385.3262	827.71796	217.25404	-341.12787	869.43842	98.543114	-374.19214	855.47937	107.24565	-294.27032	822.11163	397.90598	-290.79727	826.17291	369.41183	-284.67807	803.36115	369.73309	-314.29105	940.46753	62.28133	-340.33176	721.53473	68.712326	-341.93262	755.91193	55.590046	-392.03168	731.32855	51.391716	-300.56207	670.79022	56.081932	-351.65521	779.14362	115.56992	-337.18991	754.65308	101.75912	-329.49615	755.5094	106.86118	-366.65451
115	1.14	778.56543	1473.5763	-226.65933	765.22247	1446.2482	-219.12221	768.091	1449.6765	-256.9473	753.34369	1077.7545	-119.05	761.06049	1085.9722	-367.2233	920.27448	1090.9098	-163.86076	927.54449	1096.9865	-281.02426	937.00012	1144.1686	-225.66928	942.36597	1119.0824	-238.36729	943.06934	1112.0848	-199.29015	873.54907	553.03217	-78.228416	861.35547	541.84344	-212.94319	766.92267	613.82446	-136.06706	734.52856	699.07056	-126.57925	719.89868	839.81055	-112.12961	846.3858	706.48962	-60.88253	817.2464	849.75616	-40.420933	817.00171	971.5683	-53.796211	822.26923	807.85889	-35.949883	828.98315	778.94501	-36.672096	791.25519	784.04266	-36.186077	879.63245	500.19873	-75.384529	873.70642	486.49353	-198.21136	880.34937	472.08014	-70.461449	823.00177	461.61166	-123.44055	821.05212	216.37236	-122.47198	858.85278	98.497742	-94.463982	841.60712	108.5403	-172.25281	816.88165	412.93018	-147.47874	810.25806	386.31976	-137.62253	822.54205	383.79672	-174.32326	926.74567	61.507702	-133.64175	708.78369	68.23819	-116.31541	735.28912	56.783035	-77.561996	713.5293	60.086201	-159.80199	657.20721	59.652721	-110.85872	771.97211	116.81132	-115.29779	747.71381	102.45287	-103.48203	741.70435	107.36316	-141.26491	851.7923	538.83057	-383.95886	845.76184	539.44287	-249.70648	760.28442	615.05884	-326.08148	731.50507	696.93152	-323.20444	718.08917	829.85193	-335.34076	830.87457	698.54303	-407.82516	815.75885	844.33044	-434.09534	819.13226	973.96454	-423.89001	828.71069	793.65381	-438.5528	818.96722	766.58069	-434.73758	858.0509	767.6759	-431.59494	863.09448	499.72324	-383.19772	849.20581	484.55725	-264.24216	870.85938	473.20926	-387.51627	814.38135	460.32019	-344.17163	874.95776	203.37524	-385.27603	827.73376	217.24615	-341.13794	870.0155	98.398155	-373.81052	855.48065	107.20513	-294.26846	822.15564	397.85718	-290.71619	826.27856	369.33954	-284.7149	803.36066	369.74542	-314.32486	940.48621	62.320854	-340.34024	721.56232	68.693489	-341.93045	755.94861	55.567661	-392.03955	731.37561	51.357265	-300.61172	670.78839	56.088291	-351.64621	779.14355	115.57587	-337.20975	754.65253	101.77251	-329.49567	755.52478	106.85751	-366.66299
116	1.15	778.64832	1473.6029	-226.69617	765.29993	1446.2662	-219.16138	768.1955	1449.675	-257.00241	753.3717	1077.7555	-119.0938	761.14197	1085.9855	-367.26953	920.30762	1090.8856	-163.88495	927.54974	1096.955	-281.0578	937.09961	1144.3959	-225.81194	942.42041	1119.0668	-238.38933	943.12408	1112.0911	-199.28598	873.58008	553.03387	-78.26796	861.36456	541.83124	-212.94405	766.91974	613.85022	-136.09685	734.52808	699.08167	-126.62433	719.9104	839.828	-112.16576	846.46423	706.46899	-60.938263	817.27264	849.75555	-40.478382	817.04199	971.56012	-53.839981	822.32349	807.83936	-35.99231	828.98328	778.96869	-36.694996	791.3526	783.98547	-36.30024	879.65985	500.20026	-75.411034	873.75739	486.44168	-198.24908	880.35553	472.06512	-70.490677	823.02216	461.60278	-123.45268	821.06427	216.3476	-122.49142	858.89282	98.465393	-94.462112	841.59595	108.52848	-172.25336	816.88568	412.9415	-147.52061	810.25439	386.3252	-137.65674	822.61792	383.73386	-174.38301	926.78796	61.443207	-133.61891	708.81604	68.223091	-116.32747	735.31299	56.751785	-77.572739	713.55792	60.065716	-159.81653	657.30566	59.556049	-110.95277	771.98572	116.80762	-115.29239	747.73981	102.44044	-103.49898	741.74841	107.30832	-141.27243	852.74536	539.00391	-383.43307	845.77209	539.43121	-249.74898	760.28827	615.06641	-326.11053	731.50885	696.94891	-323.24399	718.08917	829.87421	-335.39575	830.94409	698.5108	-407.82187	815.86157	844.34131	-434.09363	819.20203	973.97333	-423.93256	828.73907	793.62787	-438.61578	819.1861	766.09613	-434.8782	858.12183	767.78461	-431.55945	863.12714	499.67535	-383.24243	849.2063	484.55768	-264.27542	870.87762	473.19095	-387.55646	814.43713	460.29227	-344.2132	874.97162	203.3428	-385.32465	827.79395	217.19522	-341.15909	870.08948	98.368416	-373.81073	855.48248	107.21101	-294.29575	822.12622	397.90857	-290.84964	826.23389	369.36292	-284.72641	803.36536	369.72266	-314.34991	940.52795	62.218372	-340.34213	721.5816	68.693497	-341.93802	755.97162	55.558155	-392.05774	731.38702	51.346649	-300.61795	670.83679	56.053509	-351.6225	779.1571	115.56126	-337.22858	754.7243	101.7478	-329.51544	755.5188	106.87004	-366.72067
117	1.16	778.72839	1473.6163	-226.72562	765.36639	1446.2986	-219.20233	768.26837	1449.6998	-257.01617	752.62811	1077.9569	-118.97437	761.15308	1086.0138	-367.30969	920.32471	1090.8986	-163.905	927.56628	1096.953	-281.05951	937.14056	1144.3912	-225.84125	942.40448	1119.0129	-238.43352	943.14215	1112.0162	-199.40599	873.56897	553.01819	-78.27655	861.40051	541.836	-213.00798	766.94354	613.83673	-136.13857	734.53418	699.09039	-126.65248	719.92523	839.83325	-112.21558	846.4433	706.47321	-60.972942	817.2981	849.76007	-40.512699	817.05341	971.5694	-53.883659	822.23499	807.96906	-35.968765	829.01495	778.9328	-36.7313	791.27991	784.06421	-36.256943	879.63678	500.21075	-75.419586	872.97998	486.3793	-198.67729	880.35071	472.06509	-70.518723	823.01398	461.61151	-123.50854	821.04871	216.36726	-122.51884	858.86469	98.475929	-94.480644	841.60272	108.53456	-172.28539	816.93945	412.89859	-147.54236	810.24969	386.32068	-137.69354	822.64874	383.72418	-174.40562	926.73853	61.504391	-133.63608	708.80597	68.225922	-116.33784	735.20667	56.868099	-77.516693	713.5462	60.061951	-159.83359	657.23657	59.617558	-110.89204	771.98529	116.81096	-115.30349	747.70471	102.48025	-103.45619	741.72809	107.32484	-141.28877	852.90375	539.00037	-383.43054	845.73755	539.44263	-249.76653	760.29675	615.06958	-326.16345	731.50836	696.95807	-323.293	718.12634	829.87903	-335.44672	830.9162	698.50275	-407.87881	815.8067	844.37366	-434.19293	819.21503	973.96613	-423.96494	828.75287	793.60651	-438.65091	819.13184	766.56604	-434.8631	857.72888	767.49347	-430.94159	863.12262	499.68213	-383.27191	849.18689	484.56738	-264.28314	870.90015	473.17047	-387.60455	814.39813	460.30692	-344.23773	874.97113	203.34314	-385.35742	827.77435	217.24197	-341.17331	870.06555	98.364044	-373.82391	855.4696	107.24886	-294.29306	822.13239	397.91367	-290.84866	826.26776	369.33777	-284.76709	803.37604	369.71652	-314.36404	940.46112	62.181328	-340.37506	721.58929	68.680855	-341.95813	755.98181	55.548729	-392.0675	731.34174	51.379902	-300.60077	670.80255	56.080791	-351.67108	779.17798	115.59674	-337.23434	754.67926	101.75533	-329.51886	755.55719	106.84241	-366.69302
